# xmcd
#
# Track frame offsets:
#	150
#	15134
#	33257
#	55681
#	73616
#	89959
#	108899
#	124149
#	140205
#	154594
#	175721
#
# Disc length: 2552 seconds
# Revision: 0
# Processed by: cddbd v1.5.2PL0 Copyright (c) Steve Scherf et al.
# Submitted via: dBpowerAMP V12.0
#
DISCID=8b09f60b
DTITLE=The Toy Hearts - When I Cut Loose
DYEAR=1900
DGENRE=
TTITLE0=Stronger
TTITLE1=Girl in Each State
TTITLE2=The Angels Sing to Me
TTITLE3=Montpellier Street
TTITLE4=Get Along with the Blues
TTITLE5=Giving You Back Your Troubles
TTITLE6=Sly North Wind
TTITLE7=Girl that You Couldn't Fool
TTITLE8=I'll Keep Waiting
TTITLE9=Fast Raging River
TTITLE10=When I Cut Loose
EXTD=
EXTT0=
EXTT1=
EXTT2=
EXTT3=
EXTT4=
EXTT5=
EXTT6=
EXTT7=
EXTT8=
EXTT9=
EXTT10=
PLAYORDER=
